# xmcd
#
# Track frame offsets: 
#        150
#        17900
#        34104
#        48054
#        65530
#        78180
#        96830
#        107540
#        122048
#
# Disc length: 1908 seconds
#
# Revision: 1
# Processed by: cddbd v1.5.2PL0 Copyright (c) Steve Scherf et al.
# Submitted via: ExactAudioCopy v1.0b3
#
DISCID=67077209
DTITLE=Ismet Bexheti - Moj Fisnike
DYEAR=2013
DGENRE=Country
TTITLE0=Moj Fisnike
TTITLE1=Ti je Zemra ime
TTITLE2=Mos ma Fsheh Unazen
TTITLE3=Hajt Vajzë Shqiptare
TTITLE4=Emrin tim mos ma Përmend
TTITLE5=Vetullkurora
TTITLE6=Engjëllushë
TTITLE7=Përmjedis Pazarit Durrësit
TTITLE8=Balada e Nënës
EXTD=
EXTT0=
EXTT1=
EXTT2=
EXTT3=
EXTT4=
EXTT5=
EXTT6=
EXTT7=
EXTT8=
PLAYORDER=
